<?xml version="1.0" standalone="no"?>
<svg version="1.0" xmlns="http://www.w3.org/2000/svg"
  width="240.000000pt" height="240.000000pt" viewBox="0 0 240.000000 240.000000"
  preserveAspectRatio="xMidYMid meet">

  <g transform="translate(0.000000,240.000000) scale(0.100000,-0.100000)"
    fill="#000000" stroke="none">
    <path
      d="M0 1200 l0 -1200 1200 0 1200 0 0 1200 0 1200 -1200 0 -1200 0 0
  -1200z m935 0 l0 -585 -152 -3 -153 -3 0 76 0 75 80 0 80 0 0 440 0 440 -80 0
  -80 0 0 75 0 76 153 -3 152 -3 0 -585z m835 515 l0 -75 -80 0 -80 0 0 -440 0
  -440 80 0 80 0 0 -75 0 -76 -152 3 -153 3 -3 575 c-1 316 0 581 3 588 3 9 44
  12 155 12 l150 0 0 -75z" />
  </g>
</svg>